<?xml version="1.0" standalone="no"?>
<!DOCTYPE svg PUBLIC "-//W3C//DTD SVG 20010904//EN"
 "http://www.w3.org/TR/2001/REC-SVG-20010904/DTD/svg10.dtd">
<svg version="1.0" xmlns="http://www.w3.org/2000/svg"
 width="4669.000000pt" height="3592.000000pt" viewBox="0 0 4669.000000 3592.000000"
 preserveAspectRatio="xMidYMid meet">

<g transform="translate(0.000000,3592.000000) scale(0.100000,-0.100000)"
fill="#000000" stroke="none">
<path d="M432 35904 c-63 -17 -82 -26 -144 -71 -57 -41 -113 -116 -139 -184
-21 -55 -56 -319 -90 -687 -19 -211 -20 -228 -4 -297 32 -147 138 -263 284
-310 40 -13 76 -16 145 -13 111 5 180 33 257 105 106 99 125 151 150 412 10
113 31 307 45 431 22 184 25 235 16 281 -45 243 -285 397 -520 333z"/>
<path d="M321 33495 c-160 -45 -280 -174 -311 -333 -13 -72 17 -730 41 -882
29 -183 167 -321 352 -353 173 -29 359 71 437 234 49 103 48 71 1 884 -10 159
-27 219 -88 299 -97 128 -283 193 -432 151z"/>
<path d="M581 31094 c-165 -44 -285 -177 -314 -349 -10 -59 -8 -81 32 -282 74
-383 131 -625 161 -690 38 -82 112 -155 198 -196 63 -30 74 -32 177 -32 102 0
115 2 176 31 83 40 158 114 200 200 49 99 51 187 9 369 -17 77 -56 262 -86
410 -37 185 -62 287 -80 324 -52 106 -169 194 -292 220 -69 14 -114 13 -181
-5z"/>
<path d="M1163 28749 c-107 -34 -200 -118 -251 -229 -20 -43 -27 -75 -30 -146
-4 -86 -2 -98 38 -215 69 -204 230 -629 262 -696 77 -158 269 -257 438 -225
210 39 350 205 350 414 0 80 3 69 -147 473 -50 132 -102 277 -117 323 -15 45
-45 108 -66 140 -101 151 -299 218 -477 161z"/>
<path d="M20962 27015 c-240 -51 -642 -174 -755 -231 -62 -32 -131 -95 -164
-151 -167 -286 26 -634 352 -636 74 -1 97 5 305 76 127 43 297 92 390 112 91
20 189 49 218 63 153 75 252 268 223 433 -30 170 -150 300 -316 344 -78 20
-118 18 -253 -10z"/>
<path d="M22640 27010 c-82 -30 -159 -89 -207 -159 -58 -84 -76 -152 -71 -260
5 -109 43 -197 116 -270 70 -70 131 -97 310 -136 191 -43 372 -92 512 -141
137 -48 222 -54 318 -25 296 90 396 457 186 682 -27 28 -67 62 -90 75 -83 49
-434 157 -713 219 -184 41 -277 45 -361 15z"/>
<path d="M2116 26530 c-148 -47 -249 -162 -282 -321 -30 -144 -4 -209 299
-754 152 -273 175 -302 297 -359 60 -29 73 -31 175 -31 104 0 114 2 176 32 87
43 178 138 209 220 31 80 37 193 15 269 -9 32 -68 149 -130 259 -61 110 -151
274 -199 365 -91 172 -142 238 -221 284 -96 57 -230 71 -339 36z"/>
<path d="M18857 25999 c-89 -21 -203 -102 -460 -327 -214 -187 -353 -330 -381
-392 -108 -239 8 -504 255 -581 80 -25 174 -24 251 2 80 27 99 40 248 179 128
119 286 257 423 368 134 108 183 213 175 371 -6 115 -43 196 -127 273 -109
101 -246 140 -384 107z"/>
<path d="M24800 25971 c-70 -22 -95 -36 -146 -77 -76 -61 -133 -170 -149 -284
-8 -55 15 -172 45 -231 13 -24 95 -118 184 -209 159 -162 230 -245 335 -387
80 -107 164 -160 289 -183 126 -22 268 27 361 125 119 125 150 299 82 458 -22
51 -165 243 -277 372 -104 120 -309 324 -365 362 -101 70 -244 91 -359 54z"/>
<path d="M3446 24488 c-244 -31 -410 -289 -340 -529 21 -73 33 -92 214 -334
251 -336 350 -457 408 -494 260 -167 593 -20 645 283 14 82 0 171 -36 245 -15
28 -80 119 -145 203 -66 84 -179 234 -253 333 -140 188 -195 241 -279 271 -63
22 -145 31 -214 22z"/>
<path d="M17285 24219 c-96 -14 -185 -59 -246 -126 -62 -67 -351 -539 -441
-720 -46 -91 -52 -111 -56 -182 -22 -379 419 -589 698 -334 38 35 72 81 109
149 72 130 216 372 304 509 79 123 107 198 107 290 0 253 -226 450 -475 414z"/>
<path d="M25855 23866 c-133 -42 -232 -136 -277 -264 -19 -52 -21 -84 -22
-347 -1 -224 -6 -320 -20 -419 -16 -105 -17 -139 -8 -188 26 -138 105 -244
230 -305 73 -37 80 -38 181 -38 95 0 112 3 166 28 32 15 74 39 93 53 50 39
108 118 131 180 50 133 86 648 62 893 -13 136 -44 212 -116 290 -55 59 -109
93 -184 115 -64 19 -179 20 -236 2z"/>
<path d="M4936 22629 c-271 -93 -372 -416 -203 -646 38 -50 282 -291 551 -542
125 -117 249 -162 385 -140 225 36 387 251 352 470 -19 114 -59 180 -179 293
-59 55 -199 191 -312 302 -113 110 -225 212 -250 227 -104 59 -237 73 -344 36z"/>
<path d="M16205 22054 c-119 -30 -211 -91 -268 -177 -40 -60 -119 -281 -234
-657 -58 -189 -66 -225 -66 -295 1 -183 117 -341 290 -395 158 -49 313 -8 430
112 56 58 82 115 138 303 26 88 81 261 122 385 89 264 97 319 64 428 -53 176
-199 290 -381 298 -41 1 -84 1 -95 -2z"/>
<path d="M25232 21600 c-123 -26 -204 -89 -314 -244 -87 -124 -235 -310 -342
-431 -98 -112 -135 -186 -143 -288 -17 -223 130 -412 350 -450 138 -23 271 27
383 146 136 143 342 400 468 585 122 180 127 364 12 519 -92 125 -267 194
-414 163z"/>
<path d="M6810 21070 c-121 -26 -237 -120 -293 -237 -30 -63 -32 -76 -32 -173
0 -97 2 -110 31 -171 18 -37 49 -85 69 -108 42 -46 310 -239 575 -413 215
-142 289 -168 414 -148 139 22 260 113 319 238 30 62 32 74 32 172 -1 200 -48
264 -339 460 -105 70 -258 176 -340 234 -83 58 -175 115 -205 127 -65 24 -166
32 -231 19z"/>
<path d="M23485 19926 c-64 -16 -74 -21 -296 -163 -102 -65 -253 -156 -335
-203 -169 -97 -246 -164 -287 -251 -111 -237 16 -516 267 -584 107 -29 196
-18 309 38 109 54 399 228 583 349 146 97 192 142 238 238 29 60 31 73 31 170
0 97 -2 110 -32 173 -87 184 -285 281 -478 233z"/>
<path d="M8849 19802 c-176 -46 -298 -196 -307 -377 -7 -136 36 -245 133 -334
59 -54 660 -355 825 -412 63 -23 175 -26 241 -9 143 39 262 163 300 314 30
119 -13 275 -103 372 -53 57 -86 79 -208 133 -52 24 -219 103 -370 177 -332
162 -371 172 -511 136z"/>
<path d="M15601 19705 c-80 -23 -145 -62 -202 -122 -91 -96 -106 -148 -153
-523 -54 -436 -60 -513 -41 -594 32 -148 138 -264 284 -311 40 -13 76 -16 145
-13 111 5 180 33 257 105 108 101 122 142 159 472 16 148 39 334 51 412 31
216 16 310 -69 423 -96 127 -283 192 -431 151z"/>
<path d="M11102 18880 c-263 -56 -408 -343 -297 -588 32 -69 121 -162 187
-194 115 -56 793 -258 890 -266 82 -6 183 22 254 71 214 147 244 456 62 638
-68 68 -113 88 -364 163 -121 36 -298 90 -394 121 -181 58 -260 71 -338 55z"/>
<path d="M21155 18809 c-99 -33 -277 -90 -395 -126 -241 -73 -273 -87 -337
-146 -180 -165 -179 -449 2 -616 82 -76 204 -118 310 -108 119 12 845 246 918
296 97 66 159 165 180 286 22 130 -29 272 -133 368 -81 75 -146 100 -270 103
-93 3 -100 1 -275 -57z"/>
<path d="M13435 18286 c-129 -31 -225 -107 -282 -224 -37 -73 -38 -80 -38
-181 0 -136 22 -196 105 -285 104 -111 151 -125 710 -206 343 -51 409 -51 513
-2 261 122 321 469 117 672 -85 86 -139 104 -416 144 -133 20 -322 49 -422 66
-198 33 -214 34 -287 16z"/>
<path d="M18870 18250 c-91 -16 -268 -43 -395 -60 -126 -18 -254 -40 -283 -50
-108 -38 -210 -141 -249 -253 -26 -75 -24 -214 5 -287 45 -112 130 -197 242
-242 43 -17 76 -22 150 -22 146 0 797 98 896 135 104 39 192 130 237 243 28
69 29 210 4 283 -40 114 -146 218 -262 258 -83 28 -164 27 -345 -5z"/>
<path d="M15792 18030 c-75 -27 -113 -53 -175 -120 -67 -72 -98 -146 -105
-251 -8 -126 28 -219 120 -315 l49 -51 -56 10 c-210 38 -433 -123 -475 -342
-11 -58 -1 -338 25 -692 17 -224 31 -285 84 -362 182 -265 575 -238 717 49 45
90 51 154 35 359 -6 77 -15 250 -21 385 -13 271 -26 340 -80 422 -17 26 -48
62 -68 79 -32 28 -33 31 -12 25 41 -14 847 -20 914 -7 180 33 315 169 346 348
36 207 -112 424 -321 472 -26 6 -223 10 -484 10 -407 0 -444 -1 -493 -19z"/>
<path d="M15730 14896 c-185 -52 -310 -214 -310 -403 0 -109 161 -828 206
-921 14 -29 47 -74 72 -100 216 -222 579 -149 692 138 38 95 37 156 -4 330
-21 85 -64 277 -96 427 -33 152 -69 291 -81 314 -32 63 -121 152 -183 182 -96
47 -202 59 -296 33z"/>
<path d="M16412 12579 c-111 -22 -232 -110 -285 -207 -40 -73 -60 -166 -54
-238 4 -38 28 -120 67 -223 72 -194 213 -544 248 -619 77 -164 265 -264 439
-235 96 17 181 62 246 133 80 85 102 147 102 280 l0 105 -103 254 c-57 139
-123 307 -147 372 -62 166 -85 206 -149 267 -103 97 -233 137 -364 111z"/>
<path d="M17367 10370 c-80 -28 -124 -58 -184 -124 -76 -83 -98 -145 -98 -277
l0 -106 47 -94 c26 -52 97 -179 159 -284 253 -433 287 -478 407 -537 63 -31
72 -33 177 -33 105 0 114 2 178 33 86 42 156 113 198 198 28 56 34 80 37 154
6 121 -10 167 -124 355 -53 88 -148 250 -211 360 -132 232 -196 305 -299 345
-85 33 -210 37 -287 10z"/>
<path d="M18735 8366 c-76 -20 -105 -34 -163 -78 -106 -79 -170 -222 -160
-355 11 -141 46 -194 399 -617 198 -237 239 -278 316 -313 281 -129 593 70
593 378 0 77 -26 171 -61 221 -13 18 -91 114 -174 213 -83 99 -196 236 -252
305 -142 178 -187 213 -310 245 -68 18 -120 18 -188 1z"/>
<path d="M20391 6589 c-215 -36 -362 -222 -349 -437 9 -137 32 -179 177 -322
138 -136 507 -467 565 -507 181 -122 446 -71 571 112 97 140 98 334 4 471 -16
24 -111 117 -212 206 -100 90 -240 217 -312 283 -71 66 -146 130 -165 142 -77
46 -189 67 -279 52z"/>
<path d="M22205 5046 c-183 -58 -301 -218 -298 -406 1 -116 49 -228 130 -301
35 -33 299 -217 539 -376 207 -138 254 -158 369 -157 186 2 342 119 396 296
42 137 8 293 -87 398 -22 24 -120 97 -219 163 -99 66 -254 172 -345 236 -194
136 -253 161 -368 160 -42 0 -95 -6 -117 -13z"/>
<path d="M41842 4578 c54 -148 1743 -4555 1748 -4561 4 -5 701 847 1550 1893
848 1046 1540 1903 1538 1905 -1 2 -1081 174 -2398 384 -1317 210 -2406 384
-2419 387 -17 3 -22 1 -19 -8z"/>
<path d="M24248 3771 c-77 -25 -117 -52 -181 -121 -66 -71 -97 -145 -105 -248
-9 -138 53 -280 157 -356 55 -41 557 -304 706 -370 55 -25 127 -49 160 -54
177 -28 360 70 438 236 30 63 32 74 32 177 0 104 -2 114 -32 176 -62 125 -90
145 -520 363 -211 108 -401 200 -421 206 -57 15 -171 11 -234 -9z"/>
<path d="M26490 2779 c-211 -41 -368 -264 -331 -470 21 -120 83 -221 175 -283
87 -60 809 -323 910 -333 114 -10 232 33 323 120 162 153 169 414 17 578 -68
71 -104 90 -351 178 -120 43 -285 105 -368 136 -220 85 -270 94 -375 74z"/>
<path d="M41095 2186 c-264 -67 -429 -114 -463 -131 -64 -34 -142 -117 -176
-188 -130 -275 74 -595 380 -597 47 0 606 133 818 195 108 31 184 80 238 151
204 271 27 654 -312 670 -68 3 -111 -5 -485 -100z"/>
<path d="M28783 2035 c-168 -37 -293 -170 -325 -344 -31 -168 73 -367 229
-438 58 -27 528 -148 774 -199 120 -26 136 -27 201 -16 92 16 169 55 232 118
164 164 164 425 1 589 -74 74 -132 98 -360 150 -110 25 -288 68 -395 95 -231
58 -275 64 -357 45z"/>
<path d="M38755 1699 c-375 -64 -416 -73 -482 -104 -82 -40 -148 -107 -187
-188 -127 -270 54 -580 349 -595 64 -3 148 7 416 52 185 30 372 63 415 72 150
30 255 111 317 242 29 62 32 75 32 167 -1 80 -5 111 -23 155 -45 112 -146 209
-257 245 -97 31 -147 27 -580 -46z"/>
<path d="M31130 1554 c-308 -83 -411 -474 -186 -700 99 -98 135 -108 611 -170
503 -65 585 -56 721 80 85 85 114 150 122 268 9 148 -59 287 -181 369 -78 51
-126 64 -347 89 -102 12 -282 35 -400 51 -243 33 -263 33 -340 13z"/>
<path d="M36620 1430 c-41 -5 -185 -16 -320 -25 -135 -9 -271 -20 -303 -25
-224 -35 -386 -255 -349 -476 28 -168 143 -295 308 -340 61 -16 82 -17 263 -5
385 24 658 51 723 71 253 80 364 393 219 617 -48 74 -99 118 -181 157 -59 28
-75 31 -175 32 -60 1 -144 -1 -185 -6z"/>
<path d="M33583 1350 c-132 -20 -258 -115 -316 -238 -30 -63 -32 -74 -32 -177
0 -98 3 -116 26 -165 54 -114 146 -196 257 -230 60 -19 108 -22 476 -32 297
-8 424 -8 468 0 210 39 348 205 348 417 0 194 -136 362 -325 403 -27 6 -221
14 -430 17 -209 4 -389 8 -400 10 -11 1 -43 -1 -72 -5z"/>
</g>
</svg>
